<svg xmlns="http://www.w3.org/2000/svg" width="88" height="34" viewBox="0 0 88 34" fill="none"><path fill-rule="evenodd" clip-rule="evenodd" d="M19 0H5V3H19V0ZM5 9H19V31H5V9ZM2 34V6H22V34H2Z" fill="#67B7AE"></path><path d="M38.4559 29L32.3359 12.248H35.9119L40.4959 25.616L45.0799 12.248H48.6799L42.5359 29H38.4559Z" fill="white"></path><path d="M51.8156 29V12.248H55.1996V29H51.8156Z" fill="white"></path><path d="M70.7919 29L69.7119 25.856H63.1839L62.1039 29H58.5279L64.4559 12.2H68.4639L74.3679 29H70.7919ZM64.0719 23.264H68.8479L66.4479 16.28L64.0719 23.264Z" fill="white"></path><path d="M77.7218 12.248H81.1058V26.432H86.4818V29H77.7218V12.248Z" fill="white"></path></svg>